<svg width="674.501" height="89.7" viewBox="0 0 674.501 89.7" xmlns="http://www.w3.org/2000/svg"><g id="svgGroup" stroke-linecap="round" fill-rule="evenodd" font-size="9pt" stroke="#ffffff" stroke-width="0" fill="#ffffff" style="stroke:#ffffff;stroke-width:0;fill:#ffffff"><path d="M 83.101 87.7 L 85.101 80.2 A 9.908 9.908 0 0 0 86.265 80.774 Q 87.088 81.119 88.101 81.4 A 13.514 13.514 0 0 0 90.379 81.817 A 17.358 17.358 0 0 0 92.101 81.9 Q 96.301 81.9 99.601 79.2 A 12.003 12.003 0 0 0 101.534 77.139 Q 103.282 74.828 104.941 70.975 A 58.58 58.58 0 0 0 105.901 68.6 L 108.201 62.6 L 103.401 62.6 L 83.101 16.9 L 91.101 13.3 L 110.501 56.6 L 125.601 13.7 L 133.901 16.9 L 114.801 69.1 A 71.728 71.728 0 0 1 112.748 74.186 Q 111.645 76.626 110.478 78.614 A 30.86 30.86 0 0 1 108.501 81.6 A 24.268 24.268 0 0 1 105.623 84.811 Q 103.708 86.579 101.605 87.618 A 14.737 14.737 0 0 1 101.001 87.9 Q 96.901 89.7 91.901 89.7 Q 88.901 89.7 86.651 89.1 Q 84.401 88.5 83.101 87.7 Z M 576.001 85.3 L 579.301 77.5 A 20.562 20.562 0 0 0 583.117 79.873 A 24.737 24.737 0 0 0 584.901 80.65 Q 587.66 81.728 591.46 81.876 A 31.788 31.788 0 0 0 592.701 81.9 A 21.701 21.701 0 0 0 597.221 81.457 Q 600.122 80.839 602.322 79.359 A 12.576 12.576 0 0 0 603.851 78.15 A 11.352 11.352 0 0 0 606.758 73.657 Q 607.901 70.556 607.901 66.2 L 607.901 59.8 Q 605.901 62.2 602.151 64.35 Q 598.401 66.5 593.201 66.5 Q 587.301 66.5 582.001 63.45 A 22.236 22.236 0 0 1 574.708 56.612 A 27.437 27.437 0 0 1 573.401 54.5 A 25.181 25.181 0 0 1 570.688 46.876 A 35.033 35.033 0 0 1 570.101 40.3 A 32.06 32.06 0 0 1 571.018 32.492 A 26.682 26.682 0 0 1 573.351 26.4 A 25.706 25.706 0 0 1 579.414 18.778 A 24.448 24.448 0 0 1 582.101 16.8 Q 587.601 13.3 594.201 13.3 A 22.366 22.366 0 0 1 599.021 13.801 A 18.715 18.715 0 0 1 602.201 14.8 A 25.705 25.705 0 0 1 606.029 16.768 A 20.998 20.998 0 0 1 608.401 18.5 L 608.401 14.5 L 616.601 14.5 L 616.601 65.3 Q 616.601 73.9 613.601 79.3 Q 610.601 84.7 605.251 87.2 A 25.811 25.811 0 0 1 598.647 89.221 A 35.243 35.243 0 0 1 592.701 89.7 Q 588.101 89.7 583.751 88.6 A 27.232 27.232 0 0 1 578.45 86.683 A 23.518 23.518 0 0 1 576.001 85.3 Z M 327.201 62.3 L 331.001 54.8 A 18.557 18.557 0 0 0 334.144 56.926 Q 335.699 57.77 337.551 58.45 A 24.073 24.073 0 0 0 345.162 59.887 A 27.464 27.464 0 0 0 346.001 59.9 Q 351.393 59.9 354.236 58.185 A 7.738 7.738 0 0 0 354.451 58.05 Q 357.301 56.2 357.301 53.3 A 7.123 7.123 0 0 0 356.987 51.153 A 6.212 6.212 0 0 0 356.251 49.6 A 6.384 6.384 0 0 0 355.322 48.506 Q 354.308 47.534 352.634 46.581 A 22.3 22.3 0 0 0 352.401 46.45 A 28.462 28.462 0 0 0 350.406 45.457 Q 348.291 44.495 345.302 43.446 A 103.602 103.602 0 0 0 344.301 43.1 A 46.616 46.616 0 0 1 339.903 41.357 Q 337.789 40.383 336.113 39.295 A 19.335 19.335 0 0 1 333.351 37.15 A 11.324 11.324 0 0 1 330.057 31.154 A 16.794 16.794 0 0 1 329.701 27.6 Q 329.701 21.6 334.951 17.45 Q 339.355 13.969 346.609 13.408 A 37.527 37.527 0 0 1 349.501 13.3 A 40.794 40.794 0 0 1 353.946 13.531 Q 356.254 13.784 358.271 14.315 A 25.234 25.234 0 0 1 358.401 14.35 Q 362.301 15.4 365.401 17 L 362.901 24.4 Q 360.201 22.8 356.751 21.8 A 25.024 25.024 0 0 0 352.267 20.953 A 31.837 31.837 0 0 0 349.101 20.8 A 20.632 20.632 0 0 0 346.164 20.995 Q 343.078 21.44 341.201 22.9 A 9.322 9.322 0 0 0 339.843 24.173 Q 339.14 24.992 338.805 25.865 A 4.529 4.529 0 0 0 338.501 27.5 A 4.921 4.921 0 0 0 339.996 31.052 A 7.082 7.082 0 0 0 340.601 31.6 A 9.88 9.88 0 0 0 341.901 32.469 Q 344.174 33.771 348.599 35.234 A 84.459 84.459 0 0 0 348.801 35.3 A 67.753 67.753 0 0 1 353.863 37.198 Q 359.79 39.717 362.601 42.6 Q 366.501 46.6 366.501 52.6 Q 366.501 59.348 361.25 63.355 A 16.618 16.618 0 0 1 360.851 63.65 Q 356.111 67.047 348.662 67.595 A 40.423 40.423 0 0 1 345.701 67.7 Q 339.801 67.7 335.051 66.2 A 30.883 30.883 0 0 1 331.21 64.715 Q 329.23 63.784 327.648 62.636 A 18.229 18.229 0 0 1 327.201 62.3 Z M 153.801 88.5 L 144.801 88.5 L 144.801 27.8 A 11.015 11.015 0 0 0 144.674 26.064 Q 144.343 23.998 143.151 22.95 A 5.718 5.718 0 0 0 140.361 21.628 A 7.991 7.991 0 0 0 138.901 21.5 L 140.801 14.5 Q 146.662 14.5 149.723 17.464 A 10.15 10.15 0 0 1 152.301 21.8 Q 153.256 20.367 155.352 18.477 A 38.58 38.58 0 0 1 155.551 18.3 A 18.902 18.902 0 0 1 158.252 16.316 A 25.569 25.569 0 0 1 161.151 14.8 A 16.955 16.955 0 0 1 165.709 13.511 A 21.886 21.886 0 0 1 168.801 13.3 Q 174.801 13.3 180.051 16.45 A 22.329 22.329 0 0 1 187.229 23.417 A 27.464 27.464 0 0 1 188.501 25.55 Q 191.701 31.5 191.701 40 Q 191.701 48.3 188.501 54.55 A 27.846 27.846 0 0 1 184.567 60.382 A 23.029 23.029 0 0 1 180.151 64.25 Q 175.001 67.7 169.001 67.7 Q 164.401 67.7 160.401 65.85 A 30.352 30.352 0 0 1 156.984 64.011 Q 155.192 62.884 153.801 61.6 L 153.801 88.5 Z M 674.201 44.2 L 637.801 44.2 A 24.088 24.088 0 0 0 638.94 49.225 Q 640.276 53.038 642.901 55.6 Q 647.101 59.7 654.001 59.7 Q 658.501 59.7 662.101 58.75 Q 665.701 57.8 669.001 56.3 L 671.101 64 A 40.77 40.77 0 0 1 666.766 65.626 A 51.863 51.863 0 0 1 663.001 66.65 A 38.914 38.914 0 0 1 657.909 67.469 A 52.025 52.025 0 0 1 652.901 67.7 A 28.318 28.318 0 0 1 645.155 66.695 A 21.108 21.108 0 0 1 635.151 60.55 A 23.521 23.521 0 0 1 629.945 51.01 Q 628.601 46.345 628.601 40.5 A 35.359 35.359 0 0 1 629.433 32.678 A 28.84 28.84 0 0 1 631.551 26.55 A 24.642 24.642 0 0 1 636.567 19.468 A 22.887 22.887 0 0 1 639.801 16.85 A 21.048 21.048 0 0 1 650.06 13.378 A 26.205 26.205 0 0 1 652.101 13.3 Q 659.601 13.3 664.551 16.55 Q 669.501 19.8 672.001 25.3 A 28.185 28.185 0 0 1 674.427 35.164 A 33.434 33.434 0 0 1 674.501 37.4 A 75.204 75.204 0 0 1 674.21 44.097 A 69.426 69.426 0 0 1 674.201 44.2 Z M 206.201 48.6 L 206.201 24.2 L 197.201 24.2 L 197.201 16.4 L 206.401 16.4 L 208.301 0 L 215.201 0 L 215.201 16.4 L 229.601 16.4 L 229.601 24.2 L 215.201 24.2 L 215.201 49.3 A 21.559 21.559 0 0 0 215.368 52.096 Q 215.842 55.702 217.651 57.4 Q 220.101 59.7 223.501 59.7 Q 226.001 59.7 228.251 58.9 Q 230.501 58.1 232.401 57 L 234.901 64.2 A 18.546 18.546 0 0 1 233.282 65.056 Q 232.481 65.435 231.535 65.808 A 43.365 43.365 0 0 1 229.501 66.55 Q 226.101 67.7 222.401 67.7 Q 214.901 67.7 210.551 62.75 A 16.116 16.116 0 0 1 207.322 56.848 Q 206.56 54.417 206.316 51.48 A 34.777 34.777 0 0 1 206.201 48.6 Z M 380.501 48.6 L 380.501 24.2 L 371.501 24.2 L 371.501 16.4 L 380.701 16.4 L 382.601 0 L 389.501 0 L 389.501 16.4 L 403.901 16.4 L 403.901 24.2 L 389.501 24.2 L 389.501 49.3 A 21.559 21.559 0 0 0 389.668 52.096 Q 390.142 55.702 391.951 57.4 Q 394.401 59.7 397.801 59.7 Q 400.301 59.7 402.551 58.9 Q 404.801 58.1 406.701 57 L 409.201 64.2 A 18.546 18.546 0 0 1 407.582 65.056 Q 406.781 65.435 405.835 65.808 A 43.365 43.365 0 0 1 403.801 66.55 Q 400.401 67.7 396.701 67.7 Q 389.201 67.7 384.851 62.75 A 16.116 16.116 0 0 1 381.622 56.848 Q 380.86 54.417 380.616 51.48 A 34.777 34.777 0 0 1 380.501 48.6 Z M 39.401 16.4 L 36.701 24 A 30.422 30.422 0 0 0 33.796 22.724 A 23.42 23.42 0 0 0 31.351 21.95 A 20.543 20.543 0 0 0 28.308 21.424 A 26.355 26.355 0 0 0 25.701 21.3 A 15.889 15.889 0 0 0 18.448 22.943 A 16.132 16.132 0 0 0 13.951 26.35 Q 9.201 31.4 9.201 40.3 A 25.192 25.192 0 0 0 9.906 46.36 A 21.45 21.45 0 0 0 11.201 50.1 A 18.564 18.564 0 0 0 14.111 54.677 A 16.275 16.275 0 0 0 16.751 57.1 Q 20.301 59.7 25.101 59.7 Q 28.266 59.7 30.668 59.11 A 15.08 15.08 0 0 0 31.601 58.85 Q 34.29 58.003 37.376 56.412 A 49.095 49.095 0 0 0 37.401 56.4 L 40.201 64 Q 37.101 65.7 33.251 66.7 Q 29.401 67.7 24.501 67.7 A 26.803 26.803 0 0 1 17.462 66.81 A 22.074 22.074 0 0 1 11.551 64.25 Q 6.001 60.8 3.001 54.65 Q 0.001 48.5 0.001 40.5 Q 0.001 33 3.051 26.8 Q 6.101 20.6 11.801 16.95 A 23.067 23.067 0 0 1 21.469 13.529 A 29.608 29.608 0 0 1 25.201 13.3 Q 29.601 13.3 32.951 14.1 Q 36.301 14.9 39.401 16.4 Z M 548.501 18.7 L 548.501 14.5 L 556.701 14.5 L 556.701 53.9 A 12.15 12.15 0 0 0 556.802 55.536 Q 557.134 57.97 558.551 58.85 Q 560.401 60 562.601 60 L 560.701 67 A 17.722 17.722 0 0 1 556.436 66.528 Q 550.799 65.128 549.204 59.58 A 13.59 13.59 0 0 1 549.101 59.2 A 21.307 21.307 0 0 1 545.991 62.626 A 28.498 28.498 0 0 1 542.851 65.05 Q 538.901 67.7 532.801 67.7 Q 526.301 67.7 521.001 64.4 A 22.947 22.947 0 0 1 513.588 56.873 A 27.923 27.923 0 0 1 512.551 55.05 A 27.228 27.228 0 0 1 509.921 47.108 A 36.644 36.644 0 0 1 509.401 40.8 A 33.142 33.142 0 0 1 510.397 32.531 A 27.968 27.968 0 0 1 512.551 26.8 Q 515.701 20.6 521.251 16.95 A 22.297 22.297 0 0 1 532.445 13.344 A 27.388 27.388 0 0 1 534.001 13.3 A 22.584 22.584 0 0 1 538.794 13.79 A 18.703 18.703 0 0 1 542.151 14.85 A 26.002 26.002 0 0 1 546.437 17.144 A 22.103 22.103 0 0 1 548.501 18.7 Z M 59.701 66.5 L 50.701 66.5 L 50.701 14.5 L 59.401 14.5 L 59.401 25.8 Q 60.701 22.5 62.901 19.65 Q 65.101 16.8 68.401 15.05 A 14.817 14.817 0 0 1 73.08 13.526 A 19.459 19.459 0 0 1 76.101 13.3 Q 77.601 13.3 79.101 13.45 A 18.972 18.972 0 0 1 80.155 13.584 Q 80.655 13.662 81.083 13.762 A 8.817 8.817 0 0 1 81.601 13.9 L 78.901 23.2 A 9.763 9.763 0 0 0 76.755 22.588 Q 75.66 22.4 74.401 22.4 A 12.958 12.958 0 0 0 67.771 24.246 A 15.609 15.609 0 0 0 67.351 24.5 Q 64.023 26.586 61.879 30.942 A 22.927 22.927 0 0 0 61.851 31 Q 60.088 34.607 59.77 39.828 A 39.09 39.09 0 0 0 59.701 42.2 L 59.701 66.5 Z M 485.001 66.5 L 476.001 66.5 L 476.001 14.5 L 484.701 14.5 L 484.701 25.8 Q 486.001 22.5 488.201 19.65 Q 490.401 16.8 493.701 15.05 A 14.817 14.817 0 0 1 498.38 13.526 A 19.459 19.459 0 0 1 501.401 13.3 Q 502.901 13.3 504.401 13.45 A 18.972 18.972 0 0 1 505.455 13.584 Q 505.955 13.662 506.383 13.762 A 8.817 8.817 0 0 1 506.901 13.9 L 504.201 23.2 A 9.763 9.763 0 0 0 502.055 22.588 Q 500.96 22.4 499.701 22.4 A 12.958 12.958 0 0 0 493.071 24.246 A 15.609 15.609 0 0 0 492.651 24.5 Q 489.323 26.586 487.179 30.942 A 22.927 22.927 0 0 0 487.151 31 Q 485.388 34.607 485.07 39.828 A 39.09 39.09 0 0 0 485.001 42.2 L 485.001 66.5 Z M 250.501 64.25 A 24.559 24.559 0 0 0 255.099 66.34 Q 259.154 67.7 263.801 67.7 Q 271.201 67.7 277.051 64.3 Q 282.901 60.9 286.301 54.75 A 26.255 26.255 0 0 0 288.954 47.609 A 34.184 34.184 0 0 0 289.701 40.3 A 34.542 34.542 0 0 0 289.215 34.391 A 25.795 25.795 0 0 0 286.251 25.95 Q 282.801 19.9 276.951 16.6 A 24.848 24.848 0 0 0 272.309 14.573 A 27.738 27.738 0 0 0 263.801 13.3 A 31.325 31.325 0 0 0 262.221 13.339 A 26.169 26.169 0 0 0 250.601 16.6 Q 244.701 19.9 241.301 26 A 26.023 26.023 0 0 0 238.551 33.59 A 35.006 35.006 0 0 0 237.901 40.5 A 34.82 34.82 0 0 0 238.166 44.854 A 27.451 27.451 0 0 0 241.251 54.65 Q 244.601 60.8 250.501 64.25 Z M 424.801 64.25 A 24.559 24.559 0 0 0 429.399 66.34 Q 433.454 67.7 438.101 67.7 Q 445.501 67.7 451.351 64.3 Q 457.201 60.9 460.601 54.75 A 26.255 26.255 0 0 0 463.254 47.609 A 34.184 34.184 0 0 0 464.001 40.3 A 34.542 34.542 0 0 0 463.515 34.391 A 25.795 25.795 0 0 0 460.551 25.95 Q 457.101 19.9 451.251 16.6 A 24.848 24.848 0 0 0 446.609 14.573 A 27.738 27.738 0 0 0 438.101 13.3 A 31.325 31.325 0 0 0 436.521 13.339 A 26.169 26.169 0 0 0 424.901 16.6 Q 419.001 19.9 415.601 26 A 26.023 26.023 0 0 0 412.851 33.59 A 35.006 35.006 0 0 0 412.201 40.5 A 34.82 34.82 0 0 0 412.466 44.854 A 27.451 27.451 0 0 0 415.551 54.65 Q 418.901 60.8 424.801 64.25 Z M 263.801 59.7 Q 271.701 59.7 276.101 54.35 A 18.802 18.802 0 0 0 279.92 46.26 A 27.105 27.105 0 0 0 280.501 40.5 Q 280.501 35.3 278.301 30.95 A 19.198 19.198 0 0 0 274.129 25.381 A 18.17 18.17 0 0 0 272.351 23.95 Q 268.601 21.3 263.801 21.3 A 19.249 19.249 0 0 0 258.575 21.972 A 14.037 14.037 0 0 0 251.501 26.5 A 17.878 17.878 0 0 0 247.827 33.874 Q 247.101 36.806 247.101 40.3 Q 247.101 45.5 249.301 49.95 A 19.437 19.437 0 0 0 252.831 54.99 A 17.627 17.627 0 0 0 255.251 57.05 Q 259.001 59.7 263.801 59.7 Z M 438.101 59.7 Q 446.001 59.7 450.401 54.35 A 18.802 18.802 0 0 0 454.22 46.26 A 27.105 27.105 0 0 0 454.801 40.5 Q 454.801 35.3 452.601 30.95 A 19.198 19.198 0 0 0 448.429 25.381 A 18.17 18.17 0 0 0 446.651 23.95 Q 442.901 21.3 438.101 21.3 A 19.249 19.249 0 0 0 432.875 21.972 A 14.037 14.037 0 0 0 425.801 26.5 A 17.878 17.878 0 0 0 422.127 33.874 Q 421.401 36.806 421.401 40.3 Q 421.401 45.5 423.601 49.95 A 19.437 19.437 0 0 0 427.131 54.99 A 17.627 17.627 0 0 0 429.551 57.05 Q 433.301 59.7 438.101 59.7 Z M 547.701 53.2 L 547.701 25.3 Q 545.001 23.4 541.751 22.25 Q 538.501 21.1 534.901 21.1 A 15.924 15.924 0 0 0 529.929 21.854 A 14.024 14.024 0 0 0 526.451 23.55 A 16.301 16.301 0 0 0 521.431 28.974 A 19.962 19.962 0 0 0 520.701 30.35 A 20.663 20.663 0 0 0 518.947 36.027 A 27.678 27.678 0 0 0 518.601 40.5 Q 518.601 46.1 520.701 50.45 A 17.602 17.602 0 0 0 523.806 54.996 A 15.697 15.697 0 0 0 526.501 57.25 Q 530.201 59.7 534.801 59.7 Q 538.601 59.7 542.001 57.85 Q 545.401 56 547.701 53.2 Z M 153.801 27.9 L 153.801 53.5 Q 156.401 56.2 159.801 57.95 Q 163.201 59.7 167.201 59.7 Q 173.894 59.7 178.117 54.516 A 17.38 17.38 0 0 0 178.251 54.35 A 18.792 18.792 0 0 0 181.744 47.044 Q 182.406 44.355 182.489 41.208 A 34.555 34.555 0 0 0 182.501 40.3 Q 182.501 34.3 180.351 30 Q 178.201 25.7 174.651 23.4 Q 171.101 21.1 166.801 21.1 A 14.741 14.741 0 0 0 161.174 22.163 A 14.054 14.054 0 0 0 159.051 23.25 Q 155.601 25.4 153.801 27.9 Z M 607.601 52.5 L 607.601 25.3 Q 605.435 23.725 602.397 22.441 A 36.018 36.018 0 0 0 602.301 22.4 A 16.249 16.249 0 0 0 598.497 21.349 A 22.135 22.135 0 0 0 595.101 21.1 Q 591.001 21.1 587.401 23.3 Q 583.801 25.5 581.551 29.65 Q 579.301 33.8 579.301 39.8 A 24.32 24.32 0 0 0 579.779 44.736 A 18.311 18.311 0 0 0 581.551 49.7 A 18.576 18.576 0 0 0 584.462 53.775 A 15.802 15.802 0 0 0 587.401 56.2 Q 591.001 58.5 595.201 58.5 A 15.276 15.276 0 0 0 599.779 57.832 A 13.606 13.606 0 0 0 602.401 56.7 A 20.855 20.855 0 0 0 605.382 54.684 A 16.309 16.309 0 0 0 607.601 52.5 Z M 637.701 36.9 L 666.201 36.9 A 24.355 24.355 0 0 0 665.796 32.315 Q 665.3 29.731 664.196 27.707 A 12.422 12.422 0 0 0 662.401 25.2 A 12.488 12.488 0 0 0 655.44 21.424 A 18.395 18.395 0 0 0 651.901 21.1 A 13.58 13.58 0 0 0 646.789 22.035 A 12.524 12.524 0 0 0 642.301 25.15 Q 638.501 29.2 637.701 36.9 Z" vector-effect="non-scaling-stroke"/></g></svg>