<svg width="106.201" height="72.401" viewBox="0 0 106.201 72.401" xmlns="http://www.w3.org/2000/svg"><g id="svgGroup" stroke-linecap="round" fill-rule="evenodd" font-size="9pt" stroke="#ffffff" stroke-width="0" fill="#ffffff" style="stroke:#ffffff;stroke-width:0;fill:#ffffff"><path d="M 57.401 65.3 L 62.201 57.3 Q 65.801 60.3 70.301 62.2 A 23.348 23.348 0 0 0 75.671 63.71 A 32.118 32.118 0 0 0 80.801 64.1 A 27.981 27.981 0 0 0 85.348 63.754 Q 87.77 63.354 89.732 62.494 A 13.701 13.701 0 0 0 92.201 61.1 Q 96.249 58.209 96.395 53.366 A 12.116 12.116 0 0 0 96.401 53 A 11.94 11.94 0 0 0 96.063 50.107 A 9.816 9.816 0 0 0 95.201 47.85 A 8.097 8.097 0 0 0 94 46.194 Q 92.73 44.813 90.585 43.471 A 25.81 25.81 0 0 0 90.551 43.45 Q 87.434 41.508 81.666 39.28 A 118.584 118.584 0 0 0 80.401 38.8 Q 73.201 36 68.901 33.15 A 21.931 21.931 0 0 1 65.811 30.703 Q 64.094 29.053 63.039 27.188 A 13.303 13.303 0 0 1 62.751 26.65 Q 60.901 23 60.901 18 Q 60.901 13 63.651 8.95 Q 66.401 4.9 71.751 2.45 A 25.558 25.558 0 0 1 77.651 0.615 Q 80.893 0 84.701 0 Q 90.901 0 95.851 1.25 Q 100.801 2.5 105.501 4.8 L 102.001 12.9 A 31.496 31.496 0 0 0 97.875 10.881 A 41.686 41.686 0 0 0 94.051 9.55 Q 89.501 8.2 84.501 8.2 A 27.187 27.187 0 0 0 80.471 8.48 Q 78.339 8.8 76.601 9.487 A 12.616 12.616 0 0 0 74.101 10.8 A 9.902 9.902 0 0 0 71.937 12.765 A 7.359 7.359 0 0 0 70.301 17.5 A 10.464 10.464 0 0 0 70.593 20.022 A 8.562 8.562 0 0 0 71.401 22.1 Q 72.456 24.019 75.492 25.847 A 23.503 23.503 0 0 0 75.751 26 A 33.003 33.003 0 0 0 77.967 27.172 Q 80.236 28.275 83.447 29.523 A 130.016 130.016 0 0 0 85.501 30.3 A 81.228 81.228 0 0 1 90.479 32.329 Q 94.865 34.3 97.851 36.4 A 26.044 26.044 0 0 1 100.891 38.878 Q 103.113 41.006 104.301 43.35 A 17.579 17.579 0 0 1 106.042 49.213 A 22.155 22.155 0 0 1 106.201 51.9 A 21.71 21.71 0 0 1 105.533 57.401 A 17.105 17.105 0 0 1 102.951 63 Q 99.701 67.6 93.951 70 A 30.521 30.521 0 0 1 86.541 72.004 A 40.027 40.027 0 0 1 80.801 72.4 Q 73.501 72.4 67.501 70.45 A 38.206 38.206 0 0 1 62.134 68.268 A 28.433 28.433 0 0 1 57.401 65.3 Z M 48.901 3.6 L 46.001 11.6 Q 42.901 10.1 39.651 9.2 Q 36.858 8.427 33.215 8.318 A 40.705 40.705 0 0 0 32.001 8.3 A 21.173 21.173 0 0 0 24.096 9.755 A 19.981 19.981 0 0 0 20.551 11.6 A 21.167 21.167 0 0 0 14.185 18.181 A 26.978 26.978 0 0 0 12.601 21.1 Q 9.701 27.3 9.701 36.1 Q 9.701 44.5 12.551 50.8 A 25.677 25.677 0 0 0 16.137 56.628 A 21.423 21.423 0 0 0 20.451 60.6 A 19.703 19.703 0 0 0 31.596 64.097 A 23.894 23.894 0 0 0 32.001 64.1 A 33.715 33.715 0 0 0 35.972 63.879 Q 38.448 63.585 40.501 62.9 Q 44.101 61.7 47.501 59.8 L 50.401 67.7 A 37.561 37.561 0 0 1 45.906 69.745 A 47.894 47.894 0 0 1 41.951 71.05 A 33.592 33.592 0 0 1 36.985 72.041 Q 34.504 72.355 31.706 72.395 A 57.414 57.414 0 0 1 30.901 72.4 A 32.384 32.384 0 0 1 21.576 71.099 A 27.961 27.961 0 0 1 14.801 68.05 A 28.6 28.6 0 0 1 4.924 57.605 A 34.916 34.916 0 0 1 3.901 55.65 A 37.611 37.611 0 0 1 0.801 45.933 Q 0.026 41.667 0.001 36.814 A 62.816 62.816 0 0 1 0.001 36.5 Q 0.001 25.8 3.951 17.55 Q 7.901 9.3 15.151 4.65 A 29.371 29.371 0 0 1 27.831 0.239 A 37.292 37.292 0 0 1 32.101 0 A 45.639 45.639 0 0 1 37.159 0.268 A 35.2 35.2 0 0 1 41.201 0.95 A 38.224 38.224 0 0 1 48.675 3.495 A 35.605 35.605 0 0 1 48.901 3.6 Z" vector-effect="non-scaling-stroke"/></g></svg>